PathFileType	4	(X/Y/Z)	/Users/itak/Documents/Research/Walk-IL/dataset/trc/00381_00012.trc
DataRate	CameraRate	NumFrames	NumMarkers	Units	OrigDataRate	OrigDataStartFrame	OrigNumFrames
100.000000	100.000000	4	54	mm	100.000000	0	487
Frame#	Time	RPSI			LPSI			L3			STRN			T10			C7			CLAV			RBAK			LBAK			LSHO			LUPA			LAEL			LAOL			LWTS			LWPS			LFRA			LHPS			LHTS			RSHO			RUPA			RAEL			RAOL			RWTS			RWPS			RFRA			RIFD			RHPS			RBHD			LFHD			RFHD			LBHD			LHIP			RASI			LASI			LKNE			LTHI			LANK			LTIP			LTOE			LMT1			LMT5			LHEE			RKNE			RTHI			RANK			RTIP			RTOE			RMT1			RMT5			RHEE			RHTS			RHIP			LIFD			*53			
		X1	Y1	Z1	X2	Y2	Z2	X3	Y3	Z3	X4	Y4	Z4	X5	Y5	Z5	X6	Y6	Z6	X7	Y7	Z7	X8	Y8	Z8	X9	Y9	Z9	X10	Y10	Z10	X11	Y11	Z11	X12	Y12	Z12	X13	Y13	Z13	X14	Y14	Z14	X15	Y15	Z15	X16	Y16	Z16	X17	Y17	Z17	X18	Y18	Z18	X19	Y19	Z19	X20	Y20	Z20	X21	Y21	Z21	X22	Y22	Z22	X23	Y23	Z23	X24	Y24	Z24	X25	Y25	Z25	X26	Y26	Z26	X27	Y27	Z27	X28	Y28	Z28	X29	Y29	Z29	X30	Y30	Z30	X31	Y31	Z31	X32	Y32	Z32	X33	Y33	Z33	X34	Y34	Z34	X35	Y35	Z35	X36	Y36	Z36	X37	Y37	Z37	X38	Y38	Z38	X39	Y39	Z39	X40	Y40	Z40	X41	Y41	Z41	X42	Y42	Z42	X43	Y43	Z43	X44	Y44	Z44	X45	Y45	Z45	X46	Y46	Z46	X47	Y47	Z47	X48	Y48	Z48	X49	Y49	Z49	X50	Y50	Z50	X51	Y51	Z51	X52	Y52	Z52	X53	Y53	Z53	X54	Y54	Z54	

1	0	-1586.647216796875	990.3250122070312	130.0255126953125	-1593.963012695312	981.6759033203125	-1.399240136146545	-1592.066162109375	1054.481567382812	66.06159210205078	-1361.483276367188	1223.307250976562	64.62181091308594	-1605.02978515625	1157.387939453125	61.77768325805664	-1581.60791015625	1408.076904296875	48.72016143798828	-1421.448486328125	1339.585083007812	61.50743103027344	-1617.168701171875	1260.193359375	117.3159637451172	-1590.41943359375	1369.7587890625	-54.24039459228516	-1503.558715820312	1389.913330078125	-102.2269058227539	-1521.905883789062	1271.5322265625	-172.1357727050781	-1497.573364257812	1076.681762695312	-199.4133605957031	-1553.489624023438	1051.560546875	-140.0567321777344	-1385.673095703125	875.5697021484375	-148.0593719482422	-1427.398803710938	857.3272094726562	-215.4835815429688	-1469.787475585938	975.2787475585938	-207.7281951904297	-1403.120361328125	774.0679931640625	-205.8261108398438	-1353.44189453125	780.8157958984375	-165.5951538085938	-1529.29931640625	1392.764892578125	209.0868988037109	-1543.152221679688	1329.144897460938	267.9457702636719	-1533.976440429688	1070.44384765625	319.8086242675781	-1552.988159179688	1056.013427734375	226.685546875	-1396.359008789062	861.6799926757812	303.4929504394531	-1439.141845703125	851.9984130859375	363.3013916015625	-1505.729736328125	1007.205749511719	339.9047241210938	-1389.791259765625	689.3416137695312	314.7955627441406	-1428.684326171875	762.381591796875	368.105712890625	-1548.923095703125	1604.719482421875	129.6713714599609	-1392.501953125	1602.444580078125	4.903549671173096	-1414.847412109375	1608.568359375	125.2517318725586	-1536.281982421875	1594.482788085938	-32.44739532470703	-1508.94921875	969.1878051757812	-116.4919281005859	-1368.868896484375	979.0010986328125	184.1569366455078	-1393.344360351562	967.9490356445312	-78.95377349853516	-1463.645263671875	476.2486267089844	-92.54532623291016	-1469.941528320312	619.090087890625	-106.4722671508789	-1562.82763671875	45.79929351806641	-49.54065704345703	-1514.650390625	244.7368011474609	-83.18463897705078	-1346.828979492188	46.71803283691406	15.8843994140625	-1428.549072265625	44.85916137695312	46.05126190185547	-1434.95263671875	42.11511993408203	-59.41128158569336	-1600.773681640625	41.89216995239258	7.75460958480835	-1470.874145507812	477.80322265625	222.7416076660156	-1425.157958984375	739.8857421875	240.6703491210938	-1517.736572265625	56.20781707763672	187.5418090820312	-1464.275024414062	351.8941040039062	208.0532379150391	-1338.929321289062	40.51962280273438	123.1089172363281	-1415.50146484375	46.37265396118164	94.19353485107422	-1434.434936523438	46.85316467285156	193.1404571533203	-1591.142700195312	44.3606071472168	135.0918121337891	-1370.631713867188	759.0072631835938	330.5269470214844	-1500.1953125	966.2996215820312	242.5707702636719	-1367.95703125	696.5587158203125	-149.4713287353516	nan	nan	nan	
2	0.01	-1586.652099609375	990.34619140625	129.9816741943359	-1593.936645507812	981.68896484375	-1.464550256729126	-1591.999389648438	1054.463745117188	65.99451446533203	-1361.458984375	1223.306884765625	64.55995178222656	-1604.976318359375	1157.412109375	61.66665649414062	-1581.509399414062	1408.08642578125	48.57386779785156	-1421.306274414062	1339.580078125	61.37860488891602	-1617.094604492188	1260.174926757812	117.1579360961914	-1590.316040039062	1369.737915039062	-54.3925895690918	-1503.486328125	1389.88623046875	-102.3703155517578	-1521.861694335938	1271.485473632812	-172.2878112792969	-1497.467041015625	1076.637329101562	-199.4752960205078	-1553.399047851562	1051.526489257812	-140.1633605957031	-1385.61767578125	875.566162109375	-148.054443359375	-1427.2578125	857.2958984375	-215.5078887939453	-1469.654174804688	975.2439575195312	-207.7836303710938	-1402.95703125	774.0352783203125	-205.8261871337891	-1353.474975585938	780.739501953125	-165.6061401367188	-1529.283569335938	1392.776123046875	208.9527587890625	-1543.092041015625	1329.125244140625	267.8564758300781	-1534.064331054688	1070.485595703125	319.7205505371094	-1552.971801757812	1056.025268554688	226.6509246826172	-1396.284057617188	861.8317260742188	303.5887451171875	-1439.134155273438	852.0567016601562	363.3486633300781	-1505.791259765625	1007.298950195312	339.8465270996094	-1389.404907226562	689.4912719726562	314.9453430175781	-1428.70654296875	762.4259643554688	368.153564453125	-1548.869262695312	1604.695556640625	129.344970703125	-1392.358032226562	1602.42138671875	4.817444324493408	-1414.792724609375	1608.569213867188	125.1681671142578	-1536.072265625	1594.425170898438	-32.63394546508789	-1508.813232421875	969.1763916015625	-116.5018920898438	-1368.861083984375	979.00634765625	184.1430969238281	-1393.26806640625	967.931884765625	-79.02740478515625	-1463.672973632812	476.2471618652344	-92.58088684082031	-1469.9501953125	619.08837890625	-106.5040130615234	-1562.826416015625	45.79312896728516	-49.5350341796875	-1514.664794921875	244.7315368652344	-83.20305633544922	-1346.818237304688	46.73679351806641	15.89764881134033	-1428.56005859375	44.85109329223633	46.05441665649414	-1434.951293945312	42.11417770385742	-59.41071701049805	-1600.77734375	41.89430618286133	7.762571811676025	-1470.876953125	477.8106689453125	222.7149353027344	-1425.172485351562	739.892333984375	240.6469573974609	-1517.814086914062	56.17115783691406	187.5414733886719	-1464.272583007812	351.8946838378906	208.0339508056641	-1338.90380859375	40.52616500854492	123.1114501953125	-1415.504272460938	46.36521148681641	94.19155883789062	-1434.427490234375	46.86046981811523	193.1414947509766	-1591.153564453125	44.37569427490234	135.0809173583984	-1370.682861328125	759.098388671875	330.6455993652344	-1500.161865234375	966.3157958984375	242.5367431640625	-1367.904541015625	696.4969482421875	-149.4746704101562	nan	nan	nan	
3	0.02	-1586.6572265625	990.3720092773438	129.9219818115234	-1593.899780273438	981.7057495117188	-1.540640592575073	-1591.908447265625	1054.437866210938	65.91558074951172	-1361.432739257812	1223.306640625	64.49239349365234	-1604.918579101562	1157.440795898438	61.53676986694336	-1581.3974609375	1408.095581054688	48.39838790893555	-1421.119140625	1339.567993164062	61.22080993652344	-1617.008666992188	1260.158447265625	116.9668273925781	-1590.196166992188	1369.713500976562	-54.58419418334961	-1503.3974609375	1389.8505859375	-102.5508880615234	-1521.79833984375	1271.428344726562	-172.4682006835938	-1497.333740234375	1076.583374023438	-199.5546417236328	-1553.29736328125	1051.486572265625	-140.2890167236328	-1385.53759765625	875.5609130859375	-148.0509033203125	-1427.087524414062	857.2582397460938	-215.5412139892578	-1469.4912109375	975.19580078125	-207.8500213623047	-1402.745239257812	773.9921264648438	-205.8253479003906	-1353.442260742188	780.6665649414062	-165.6182098388672	-1529.262084960938	1392.792724609375	208.7841644287109	-1543.019775390625	1329.100952148438	267.7455139160156	-1534.177856445312	1070.5400390625	319.6045837402344	-1552.942504882812	1056.043701171875	226.6032867431641	-1396.194702148438	862.0099487304688	303.6922912597656	-1439.129028320312	852.12744140625	363.3986206054688	-1505.879150390625	1007.410217285156	339.7625122070312	-1388.904541015625	689.6790771484375	315.1402587890625	-1428.740844726562	762.4970092773438	368.2161254882812	-1548.800415039062	1604.677124023438	128.9583892822266	-1392.16552734375	1602.382080078125	4.709675312042236	-1414.7236328125	1608.576416015625	125.0566024780273	-1535.800659179688	1594.353515625	-32.87520217895508	-1508.640625	969.1613159179688	-116.5189514160156	-1368.853271484375	979.0115356445312	184.1275787353516	-1393.145874023438	967.9135131835938	-79.15604400634766	-1463.707397460938	476.2448425292969	-92.62509918212891	-1469.9599609375	619.0867919921875	-106.5423812866211	-1562.818603515625	45.78166961669922	-49.51827621459961	-1514.682250976562	244.7245330810547	-83.22547149658203	-1346.805297851562	46.75687026977539	15.91465950012207	-1428.570556640625	44.84593963623047	46.05451965332031	-1434.94873046875	42.1126823425293	-59.4101676940918	-1600.781982421875	41.89529037475586	7.76760721206665	-1470.879516601562	477.8168640136719	222.6812438964844	-1425.19140625	739.8983764648438	240.6192932128906	-1517.894287109375	56.13480377197266	187.5377960205078	-1464.264892578125	351.8955993652344	208.0101928710938	-1338.872680664062	40.53483581542969	123.1151123046875	-1415.503173828125	46.35645294189453	94.19026947021484	-1434.410888671875	46.86676406860352	193.143798828125	-1591.163940429688	44.39133071899414	135.0690765380859	-1370.789184570312	759.2272338867188	330.7914733886719	-1500.130004882812	966.3323974609375	242.4912109375	-1367.83984375	696.4302368164062	-149.4839935302734	nan	nan	nan	
4	0.03	-1586.66162109375	990.4002685546875	129.8466491699219	-1593.85302734375	981.7260131835938	-1.621960520744324	-1591.79541015625	1054.40380859375	65.83004760742188	-1361.406005859375	1223.307006835938	64.42527008056641	-1604.862182617188	1157.472290039062	61.39582443237305	-1581.28125	1408.102783203125	48.20463562011719	-1420.9013671875	1339.547607421875	61.04529571533203	-1616.9169921875	1260.147338867188	116.7562561035156	-1590.067626953125	1369.687622070312	-54.80617904663086	-1503.295654296875	1389.807495117188	-102.7603378295898	-1521.714477539062	1271.3642578125	-172.6643829345703	-1497.179565429688	1076.522705078125	-199.6475982666016	-1553.193359375	1051.443603515625	-140.4238128662109	-1385.432006835938	875.5538330078125	-148.0499877929688	-1426.900024414062	857.2166137695312	-215.5830535888672	-1469.307983398438	975.1347045898438	-207.9227905273438	-1402.496459960938	773.9412231445312	-205.8248291015625	-1353.323364257812	780.6060791015625	-165.6347503662109	-1529.235717773438	1392.81494140625	208.5886383056641	-1542.941284179688	1329.07470703125	267.6172485351562	-1534.31201171875	1070.605224609375	319.463623046875	-1552.896362304688	1056.068359375	226.5424652099609	-1396.103637695312	862.1992797851562	303.7930297851562	-1439.129638671875	852.2062377929688	363.4447631835938	-1505.993896484375	1007.531127929688	339.6512756347656	-1388.32666015625	689.8939208984375	315.3714904785156	-1428.786499023438	762.5963745117188	368.2886962890625	-1548.719116210938	1604.670532226562	128.5390167236328	-1391.925659179688	1602.323608398438	4.585958957672119	-1414.6435546875	1608.59326171875	124.9189529418945	-1535.47802734375	1594.269775390625	-33.1635627746582	-1508.439575195312	969.14306640625	-116.5437240600586	-1368.846801757812	979.0156860351562	184.1116180419922	-1392.972534179688	967.8958740234375	-79.3529052734375	-1463.746948242188	476.2414855957031	-92.67596435546875	-1469.96923828125	619.0851440429688	-106.5852203369141	-1562.800415039062	45.76351928710938	-49.48528289794922	-1514.701538085938	244.7161560058594	-83.25080871582031	-1346.791259765625	46.77619934082031	15.93453025817871	-1428.577270507812	44.8451042175293	46.05088043212891	-1434.944946289062	42.11073684692383	-59.40973663330078	-1600.787353515625	41.89537811279297	7.767673492431641	-1470.881225585938	477.8205261230469	222.6421966552734	-1425.21337890625	739.9041137695312	240.5899200439453	-1517.964599609375	56.10514068603516	187.5299377441406	-1464.252685546875	351.89697265625	207.9832916259766	-1338.837890625	40.54551696777344	123.1196746826172	-1415.498168945312	46.34677505493164	94.18981170654297	-1434.3837890625	46.87141418457031	193.1474761962891	-1591.172241210938	44.40650939941406	135.056884765625	-1370.941528320312	759.3900756835938	330.9534606933594	-1500.105102539062	966.3485107421875	242.4355773925781	-1367.764038085938	696.3663940429688	-149.5018005371094	nan	nan	nan	
